<?xml version="1.0" encoding="UTF-8" standalone="no"?>
<!-- Created with Inkscape (http://www.inkscape.org/) -->

<svg
   xmlns:dc="http://purl.org/dc/elements/1.1/"
   xmlns:cc="http://creativecommons.org/ns#"
   xmlns:rdf="http://www.w3.org/1999/02/22-rdf-syntax-ns#"
   xmlns:svg="http://www.w3.org/2000/svg"
   xmlns="http://www.w3.org/2000/svg"
   xmlns:sodipodi="http://sodipodi.sourceforge.net/DTD/sodipodi-0.dtd"
   xmlns:inkscape="http://www.inkscape.org/namespaces/inkscape"
   width="80mm"
   height="30.441473mm"
   viewBox="0 0 283.46457 107.86349"
   id="svg4288"
   version="1.1"
   inkscape:version="0.91 r13725"
   sodipodi:docname="logo_test.svg">
  <defs
     id="defs4290" />
  <sodipodi:namedview
     id="base"
     pagecolor="#ffffff"
     bordercolor="#666666"
     borderopacity="1.0"
     inkscape:pageopacity="0.0"
     inkscape:pageshadow="2"
     inkscape:zoom="1"
     inkscape:cx="204.40096"
     inkscape:cy="75.763927"
     inkscape:document-units="px"
     inkscape:current-layer="layer1"
     showgrid="false"
     inkscape:window-width="1600"
     inkscape:window-height="867"
     inkscape:window-x="0"
     inkscape:window-y="16"
     inkscape:window-maximized="0"
     fit-margin-top="0"
     fit-margin-left="0"
     fit-margin-right="0"
     fit-margin-bottom="0" />
  <metadata
     id="metadata4293">
    <rdf:RDF>
      <cc:Work
         rdf:about="">
        <dc:format>image/svg+xml</dc:format>
        <dc:type
           rdf:resource="http://purl.org/dc/dcmitype/StillImage" />
        <dc:title></dc:title>
      </cc:Work>
    </rdf:RDF>
  </metadata>
  <g
     inkscape:label="Layer 1"
     inkscape:groupmode="layer"
     id="layer1"
     transform="translate(-28.941845,-445.33095)">
    <g
       style="font-style:normal;font-variant:normal;font-weight:normal;font-stretch:normal;font-size:223.37252808px;line-height:125%;font-family:'Liberation Sans';-inkscape-font-specification:'Liberation Sans';text-align:start;letter-spacing:0px;word-spacing:0px;writing-mode:lr-tb;text-anchor:start;fill:#000000;fill-opacity:1;stroke:none"
       id="text3251"
       transform="matrix(0.46510114,0,0,0.46510114,15.48096,295.90307)">
      <path
         d="m 63.144023,480.83217 -22.793116,0 q -4.558623,0 -7.97759,-3.41897 -3.418968,-3.41897 -3.418968,-7.97759 l 0,-136.75869 q 0,-4.55862 3.418968,-7.97759 3.418967,-3.41897 7.97759,-3.41897 l 22.793116,0 q 4.558623,0 7.97759,3.41897 3.418967,3.41897 3.418967,7.97759 0,4.55862 -3.418967,7.97759 -3.418967,3.41897 -7.97759,3.41897 l -11.396558,0 0,113.96557 11.396558,0 q 4.558623,0 7.97759,3.41897 3.418967,3.41897 3.418967,7.97759 0,4.55862 -3.418967,7.97759 -3.418967,3.41897 -7.97759,3.41897 z"
         style="font-size:239.32771301px;fill:#000000;fill-opacity:1;stroke:none"
         id="path4989"
         inkscape:connector-curvature="0" />
      <path
         d="m 109.16331,335.43109 q 0,-4.25472 3.19104,-7.44575 3.19104,-3.19104 7.44575,-3.19104 4.25472,0 7.44575,3.19104 3.19104,3.19103 3.19104,7.44575 l 0,31.91036 53.18393,0 q 12.76415,0 22.33726,9.57311 9.5731,9.57311 9.5731,22.33725 l 0,63.82072 q 0,4.25472 -3.19103,7.44575 -3.19104,3.19104 -7.44575,3.19104 -4.25472,0 -7.44575,-3.19104 -3.19104,-3.19103 -3.19104,-7.44575 l 0,-63.82072 q 0,-4.25471 -3.19104,-7.44575 -3.19103,-3.19104 -7.44575,-3.19104 l -53.18393,0 0,74.45751 q 0,4.25472 -3.19104,7.44575 -3.19103,3.19104 -7.44575,3.19104 -4.25471,0 -7.44575,-3.19104 -3.19104,-3.19103 -3.19104,-7.44575 l 0,-127.64144 z"
         style="font-style:normal;font-variant:normal;font-weight:normal;font-stretch:normal;font-family:'White Rabbit';-inkscape-font-specification:'White Rabbit';fill:#000000;fill-opacity:1;stroke:none"
         id="path4991"
         inkscape:connector-curvature="0" />
      <path
         d="m 268.57128,431.16217 q -12.76414,0 -22.33725,-9.57311 -9.57311,-9.5731 -9.57311,-22.33725 0,-12.76414 9.57311,-22.33725 9.57311,-9.57311 22.33725,-9.57311 l 63.82072,0 q 4.25472,0 7.44575,3.19104 3.19104,3.19103 3.19104,7.44575 0,4.25471 -3.19104,7.44575 -3.19103,3.19103 -7.44575,3.19103 -59.56601,0 -63.82072,0 -4.25471,0 -7.44575,3.19104 -3.19104,3.19104 -3.19104,7.44575 0,4.25472 3.19104,7.44575 3.19104,3.19104 7.44575,3.19104 l 42.54715,0 q 12.76414,0 22.33725,9.57311 9.57311,9.5731 9.57311,22.33725 0,12.76414 -9.57311,22.33725 -9.57311,9.57311 -22.33725,9.57311 l -63.82072,0 q -4.25472,0 -7.44576,-3.19104 -3.19103,-3.19103 -3.19103,-7.44575 0,-4.25471 3.19103,-7.44575 3.19104,-3.19103 7.44576,-3.19103 l 63.82072,0 q 4.25471,0 7.44575,-3.19104 3.19104,-3.19104 3.19104,-7.44575 0,-4.25472 -3.19104,-7.44575 -3.19104,-3.19104 -7.87122,-3.19104 l -42.12168,0 z"
         style="font-style:normal;font-variant:normal;font-weight:normal;font-stretch:normal;font-family:'White Rabbit';-inkscape-font-specification:'White Rabbit';fill:#000000;fill-opacity:1;stroke:none"
         id="path4993"
         inkscape:connector-curvature="0" />
      <path
         d="m 386.09373,388.61502 0,74.45751 q 0,4.25472 -3.19103,7.44575 -3.19104,3.19104 -7.44575,3.19104 -4.25472,0 -7.44575,-3.19104 -3.19104,-3.19103 -3.19104,-7.44575 l 0,-85.09429 q 0,-4.25472 3.19104,-7.44575 3.19103,-3.19104 7.44575,-3.19104 l 21.27357,0 q 12.76415,0 22.33725,9.57311 7.44575,-9.57311 20.2099,-9.57311 12.76414,0 22.33725,9.57311 9.57311,9.57311 9.57311,22.33725 l 0,63.82072 q 0,4.25472 -3.19104,7.44575 -3.19103,3.19104 -7.44575,3.19104 -4.25471,0 -7.44575,-3.19104 -3.19103,-3.19103 -3.19103,-7.44575 l 0,-63.82072 q 0,-4.25471 -3.19104,-7.44575 -3.19104,-3.19104 -7.44575,-3.19104 -4.25472,0 -7.44575,3.19104 -3.19104,3.19104 -3.19104,7.44575 l 0,63.82072 q 0,4.25472 -3.19103,7.44575 -3.19104,3.19104 -7.44576,3.19104 -4.25471,0 -7.44575,-3.19104 -3.19103,-3.19103 -3.19103,-7.44575 l 0,-63.82072 q 0,-4.25471 -3.19104,-7.44575 -3.19103,-3.19104 -7.44575,-3.19104 l -10.63679,0 z"
         style="font-style:normal;font-variant:normal;font-weight:normal;font-stretch:normal;font-family:'White Rabbit';-inkscape-font-specification:'White Rabbit';fill:#000000;fill-opacity:1;stroke:none"
         id="path4995"
         inkscape:connector-curvature="0" />
      <path
         d="m 516.57507,388.61502 0,74.45751 q 0,4.25472 -3.19103,7.44575 -3.19104,3.19104 -7.44576,3.19104 -4.25471,0 -7.44575,-3.19104 -3.19103,-3.19103 -3.19103,-7.44575 l 0,-85.09429 q 0,-4.25472 3.19103,-7.44575 3.19104,-3.19104 7.44575,-3.19104 l 42.54715,0 q 12.76415,0 22.33726,9.57311 9.5731,9.57311 9.5731,22.33725 0,4.25472 -3.19103,7.44575 -3.19104,3.19104 -7.44575,3.19104 -4.25472,0 -7.44575,-3.19104 -3.19104,-3.19103 -3.19104,-7.44575 0,-4.25471 -3.19104,-7.44575 -3.19103,-3.19104 -7.44575,-3.19104 l -31.91036,0 z"
         style="font-style:normal;font-variant:normal;font-weight:normal;font-stretch:normal;font-family:'White Rabbit';-inkscape-font-specification:'White Rabbit';fill:#000000;fill-opacity:1;stroke:none"
         id="path4997"
         inkscape:connector-curvature="0" />
      <path
         d="m 604.21354,480.83217 q -4.55862,0 -7.97759,-3.41897 -3.41897,-3.41897 -3.41897,-7.97759 0,-4.55862 3.41897,-7.97759 3.41897,-3.41897 7.97759,-3.41897 l 11.39656,0 0,-113.96557 -11.39656,0 q -4.55862,0 -7.97759,-3.41897 -3.41897,-3.41897 -3.41897,-7.97759 0,-4.55862 3.41897,-7.97759 3.41897,-3.41897 7.97759,-3.41897 l 22.79312,0 q 4.55862,0 7.97759,3.41897 3.41897,3.41897 3.41897,7.97759 l 0,136.75869 q 0,4.55862 -3.41897,7.97759 -3.41897,3.41897 -7.97759,3.41897 l -22.79312,0 z"
         style="font-size:239.32771301px;fill:#000000;fill-opacity:1;stroke:none"
         id="path4999"
         inkscape:connector-curvature="0" />
    </g>
    <path
       id="path6289"
       style="font-style:normal;font-variant:normal;font-weight:normal;font-stretch:normal;font-size:52.50495148px;line-height:125%;font-family:'Museo Sans';-inkscape-font-specification:Sans;text-align:start;letter-spacing:0px;word-spacing:0px;writing-mode:lr-tb;text-anchor:start;fill:#000000;fill-opacity:1;stroke:none"
       d="m 281.36096,534.69212 c -0.45508,4e-5 -0.87992,0.21077 -1.17729,0.52325 -0.002,0.002 0.002,0.0117 0,0.0145 -0.29897,0.30354 -0.49417,0.72082 -0.49417,1.16274 l 0,14.99952 c 0,0.44607 0.1902,0.87333 0.49417,1.17728 0.30395,0.30397 0.73121,0.49418 1.17729,0.49418 0.43913,0 0.8649,-0.17526 1.17728,-0.47964 l 0,-0.0145 0.0145,0 c 0.3125,-0.29737 0.52323,-0.7222 0.52323,-1.17728 l 0,-4.12777 0,-0.97381 0,-3.27025 0,-5.04344 0,-3.28478 -1.71505,0 z m 2.52898,0 0,3.28478 2.90688,0 c 1.62349,2e-5 2.76458,0.27863 3.38653,0.71219 0.005,0.002 0.0103,0.0116 0.0145,0.0145 0.49191,0.37647 0.72672,0.87402 0.72672,1.71506 0,0.88871 -0.28462,1.42837 -0.98833,1.87494 a 0.58339278,0.58339278 0 0 0 -0.0145,0 c -0.7076,0.45786 -1.69751,0.72673 -2.99409,0.72672 l -3.03769,0 0,3.27025 3.67721,0 c 0.84977,0 1.42787,0.17281 1.80226,0.45056 a 0.58339278,0.58339278 0 0 0 0.0145,0.0145 c 0.42802,0.30376 0.76378,0.68545 1.01741,1.22089 0.2243,0.47354 0.37789,1.39434 0.3779,2.67434 l 0,0.74125 c -1e-5,0.44033 0.15597,0.8727 0.45056,1.19182 a 0.58339278,0.58339278 0 0 0 0.029,0.029 c 0.32889,0.30361 0.76603,0.45056 1.20635,0.45056 0.45559,0 0.89409,-0.18192 1.20635,-0.49417 0.30395,-0.30396 0.49416,-0.73123 0.49417,-1.17728 l 0,-1.13369 c -10e-6,-1.15311 -0.16907,-2.24039 -0.53777,-3.24117 a 0.58339278,0.58339278 0 0 0 -0.0145,0 c -0.39354,-1.04529 -0.99835,-1.84425 -1.78773,-2.36911 0.63388,-0.38376 1.1989,-0.82227 1.58424,-1.42438 l -0.0145,0 c 0.59524,-0.90189 0.93018,-1.91885 0.93019,-2.97955 -1e-5,-1.60869 -0.62256,-2.99873 -1.80226,-3.99696 -1.28574,-1.0653 -3.13043,-1.55517 -5.4504,-1.55519 l -3.18304,0 z m -38.05109,0 c -0.45508,4e-5 -0.90016,0.20174 -1.20636,0.52325 -0.002,0.002 0.002,0.0115 0,0.0145 -0.30771,0.31288 -0.47963,0.73893 -0.47963,1.16274 l 0,14.86871 c 0,0.4278 0.15678,0.86897 0.47963,1.19182 0.31341,0.31341 0.7603,0.49417 1.20636,0.49417 l 1.71506,0 0,-3.24118 0,-4.44752 0,-3.1685 0,-4.14231 0,-3.25571 -1.71506,0 z m 2.52899,0 0,3.25572 3.08129,0 c 1.04762,10e-6 1.77333,0.21498 2.23831,0.56684 0.49539,0.36503 0.69764,0.7574 0.69765,1.36623 -1e-5,0.32648 -0.0544,0.62354 -0.14534,0.90113 -10e-4,0.005 0.001,0.0103 0,0.0145 -0.15011,0.4051 -0.41679,0.68576 -0.9302,0.91566 -0.5186,0.23223 -1.28117,0.3779 -2.28191,0.3779 l -2.6598,0 0,3.1685 3.19757,0 c 1.35722,0 2.32663,0.22452 2.92143,0.58138 0.57305,0.34384 0.82843,0.79657 0.82845,1.62785 -2e-5,0.35873 -0.0626,0.66927 -0.17441,0.9302 a 0.58339278,0.58339278 0 0 0 0,0.0145 c -0.15553,0.39168 -0.46159,0.68116 -1.04648,0.91567 -0.58489,0.23449 -1.43084,0.37788 -2.54353,0.37788 l -3.18303,0 0,3.24118 3.40105,0 c 2.26635,0 4.03434,-0.44258 5.23239,-1.45344 0.57615,-0.48324 0.98754,-1.0694 1.24997,-1.74413 0.25282,-0.65017 0.39241,-1.35323 0.39242,-2.06388 -10e-6,-0.69605 -0.10789,-1.32108 -0.31976,-1.86041 a 0.58339278,0.58339278 0 0 0 0,-0.0145 c -0.44993,-1.05948 -1.35976,-1.79356 -2.48538,-2.36911 1.17716,-0.87851 1.84585,-2.16509 1.84587,-3.73533 -2e-5,-1.45998 -0.55178,-2.72968 -1.59879,-3.64814 -1.06896,-0.93766 -2.57818,-1.36622 -4.46206,-1.36624 l -3.25571,0 z m -19.98482,0 c -0.45507,4e-5 -0.89443,0.21077 -1.19182,0.52325 -0.002,0.002 0.002,0.0117 0,0.0145 -0.29897,0.30354 -0.49417,0.72082 -0.49417,1.16274 l 0,14.99952 c 0,0.44607 0.19021,0.87333 0.49417,1.17728 0.30396,0.30397 0.74576,0.49418 1.19182,0.49418 0.43913,0 0.86491,-0.17526 1.17729,-0.47964 l 0,-0.0145 0.0145,0 c 0.31249,-0.29737 0.52323,-0.7222 0.52323,-1.17728 l 0,-3.5028 0,-1.59878 0,-3.27025 0,-5.04344 0,-3.28478 -1.71506,0 z m 2.52899,0 0,3.28478 2.90688,0 c 1.62349,2e-5 2.75005,0.27863 3.37199,0.71219 0.005,0.002 0.0103,0.0116 0.0145,0.0145 0.49191,0.37647 0.72671,0.87402 0.72672,1.71506 -1e-5,0.88871 -0.28464,1.42837 -0.98833,1.87494 a 0.58339278,0.58339278 0 0 0 -0.0145,0 c -0.70759,0.45786 -1.68298,0.72673 -2.97955,0.72672 l -3.03769,0 0,3.27025 3.6772,0 c 0.84978,0 1.41334,0.17281 1.78773,0.45056 a 0.58339278,0.58339278 0 0 0 0.0145,0.0145 c 0.42801,0.30376 0.76376,0.68545 1.0174,1.22089 0.2243,0.47354 0.37789,1.39434 0.3779,2.67434 l 0,0.74125 c -2e-5,0.44033 0.15597,0.8727 0.45056,1.19182 a 0.58339278,0.58339278 0 0 0 0.029,0.029 c 0.32889,0.30361 0.78056,0.45056 1.22089,0.45056 0.45558,0 0.89408,-0.18192 1.20635,-0.49417 0.30394,-0.30396 0.49415,-0.73123 0.49418,-1.17728 l 0,-1.13369 c -2e-5,-1.15311 -0.16909,-2.24039 -0.53778,-3.24117 a 0.58339278,0.58339278 0 0 0 -0.0145,0 c -0.39353,-1.04529 -1.01288,-1.84425 -1.80226,-2.36911 0.64114,-0.38354 1.22468,-0.81715 1.61331,-1.42438 l -0.0145,0 c 0.59792,-0.90593 0.90112,-1.92483 0.90114,-2.97955 -2e-5,-1.60869 -0.60805,-2.99873 -1.78774,-3.99696 -1.28572,-1.0653 -3.13043,-1.55517 -5.4504,-1.55519 l -3.18304,0 z m -66.66934,0 c -0.45508,4e-5 -0.88562,0.20174 -1.19182,0.52325 -0.002,0.002 0.002,0.0117 0,0.0145 -0.29897,0.30354 -0.49417,0.72082 -0.49417,1.16274 l 0,14.86871 c 0,0.44607 0.18075,0.87841 0.49417,1.19182 0.31341,0.31341 0.74576,0.49417 1.19182,0.49417 l 9.82527,0 c 0.41357,0 0.82338,-0.16295 1.11914,-0.45056 l 0,-0.0145 0.0145,0 c 0.31435,-0.29838 0.49415,-0.71782 0.49418,-1.14822 -3e-5,-0.42326 -0.18394,-0.83067 -0.47964,-1.11915 -0.009,-0.0103 -0.0194,-0.0192 -0.029,-0.029 -0.28849,-0.29572 -0.69588,-0.47965 -1.11914,-0.47965 l -8.12474,0 0,-4.27311 7.23813,0 c 0.41359,10e-6 0.82805,-0.15351 1.1337,-0.45057 l 0,-0.0145 0.0145,0 c 0.3044,-0.28889 0.49416,-0.70341 0.49417,-1.13368 -10e-6,-0.42352 -0.17459,-0.836 -0.47963,-1.13368 -0.009,-0.0103 -0.0194,-0.0192 -0.029,-0.029 -0.29769,-0.30504 -0.71016,-0.49415 -1.13369,-0.49417 l -7.23814,0 0,-4.22951 8.12474,0 c 0.41359,2e-5 0.82339,-0.16293 1.11915,-0.45057 l 0,-0.0145 0.0145,0 c 0.31435,-0.29837 0.49415,-0.73234 0.49417,-1.16275 -2e-5,-0.42325 -0.18395,-0.83066 -0.47963,-1.11916 -0.009,-0.0103 -0.0196,-0.0192 -0.029,-0.029 -0.28849,-0.2957 -0.69592,-0.47962 -1.11914,-0.47965 l -9.82527,0 z m -49.48967,0 c -0.45507,4e-5 -0.88562,0.20174 -1.19182,0.52325 -0.002,0.002 0.002,0.0117 0,0.0145 -0.29898,0.30354 -0.49418,0.72082 -0.49417,1.16274 l 0,14.99952 c -1e-5,0.44607 0.19021,0.87333 0.49417,1.17728 0.31341,0.31341 0.74575,0.49418 1.19182,0.49418 0.43913,0 0.85954,-0.18398 1.16276,-0.47964 l 0,-0.0145 0.0145,0 c 0.31249,-0.29737 0.52322,-0.7222 0.52323,-1.17728 l 0,-4.66556 0.0145,0 0,-3.2557 -0.0145,0 0,-5.49401 0.0145,0 0,-3.28478 -1.71506,0 z m 2.529,0 0,3.28478 2.8342,0 c 0.87342,2e-5 1.54754,0.0944 2.04935,0.26162 0.67642,0.22549 1.14453,0.5377 1.43891,0.93021 0.29438,0.3925 0.45056,0.87837 0.45056,1.54064 -1e-5,0.82898 -0.21915,1.39315 -0.68312,1.83133 a 0.58339278,0.58339278 0 0 0 -0.0145,0 c -0.59487,0.569 -1.64322,0.93022 -3.24118,0.93021 l -2.8342,0 0,3.2557 3.05221,0 c 2.3648,10e-6 4.24637,-0.6253 5.52309,-1.93307 l 0,-0.0145 c 1.05077,-1.05566 1.58423,-2.45155 1.58424,-4.06964 -10e-6,-1.61806 -0.53349,-3.01394 -1.58424,-4.06964 -0.002,-0.002 0.002,-0.0115 0,-0.0145 -1.27672,-1.30774 -3.15829,-1.93306 -5.52309,-1.93309 l -3.05221,0 z m 145.41678,-0.11627 c -0.43722,3e-5 -0.8773,0.17905 -1.19183,0.50871 -0.002,0.002 0.002,0.0115 0,0.0145 -0.30799,0.31281 -0.5087,0.73537 -0.5087,1.17728 l 0,9.67992 c 0,2.2757 0.85251,4.16546 2.49991,5.49401 1.41063,1.16377 3.14238,1.74413 5.11612,1.74413 1.94309,0 3.67636,-0.58285 5.10157,-1.74413 1.6635,-1.32727 2.51444,-3.21599 2.51446,-5.49401 l 0,-9.67992 c -2e-5,-0.44802 -0.19594,-0.87181 -0.50871,-1.17728 -0.009,-0.0103 -0.0194,-0.0192 -0.029,-0.029 -0.31373,-0.32004 -0.74673,-0.49414 -1.17729,-0.49417 -0.43708,3e-5 -0.8716,0.18826 -1.17728,0.50871 -0.002,0.002 0.002,0.0115 0,0.0145 -0.30801,0.31281 -0.49419,0.73535 -0.49417,1.17728 l 0,9.7526 c -2e-5,1.31749 -0.43885,2.25279 -1.3081,2.97955 -0.80672,0.65888 -1.74876,0.98834 -2.92142,0.98834 -1.17265,0 -2.11255,-0.32761 -2.92142,-0.98834 -0.86928,-0.72676 -1.29356,-1.66206 -1.29355,-2.97955 l 0,-9.7526 c -10e-6,-0.43057 -0.17412,-0.86355 -0.49417,-1.17728 -0.005,-0.005 -0.0103,-0.009 -0.0145,-0.0145 -0.005,-0.005 -0.009,-0.0103 -0.0145,-0.0145 -0.31373,-0.32005 -0.74672,-0.49413 -1.17728,-0.49417 z m -46.77175,0.029 c -0.71772,0.11448 -1.31607,0.61245 -1.62785,1.32262 l -6.24979,14.7379 a 0.58339278,0.58339278 0 0 0 0,0.0145 c -0.11765,0.28235 -0.15989,0.5695 -0.15989,0.85753 0,0.38737 0.19354,0.73897 0.45057,1.01741 0.33838,0.36658 0.82797,0.5087 1.35171,0.5087 0.63321,0 1.2113,-0.43303 1.46797,-1.03194 a 0.58339278,0.58339278 0 0 0 0,-0.0145 l 1.45344,-3.44465 3.35745,0 0,-3.19756 -2.02028,0 2.02028,-4.86903 0,-5.90097 c -0.0139,0.002 -0.0297,-0.002 -0.0435,0 z m 0.85753,0 0,5.88643 2.03483,4.88357 -2.03483,0 0,3.19756 3.35745,0 1.45344,3.44465 a 0.58339278,0.58339278 0 0 0 0,0.0145 c 0.25254,0.5893 0.83476,1.03194 1.46798,1.03194 0.52373,0 1.01332,-0.14215 1.3517,-0.5087 0.25699,-0.27843 0.45053,-0.63009 0.45056,-1.01741 -1e-5,-0.28799 -0.0423,-0.5752 -0.15987,-0.85754 a 0.58339278,0.58339278 0 0 0 0,-0.0145 l -6.23527,-14.7379 c -0.31834,-0.72507 -0.95137,-1.21791 -1.68599,-1.32263 z m -28.66185,-0.029 c -0.57293,2e-5 -1.11986,0.2314 -1.52611,0.65405 l 0,0.0145 c -0.40644,0.4111 -0.63952,0.95163 -0.63952,1.52611 l 0,14.62163 c 0,0.44606 0.1902,0.87332 0.49417,1.17728 0.31341,0.3134 0.74576,0.49417 1.19182,0.49417 0.43913,0 0.85954,-0.18398 1.16275,-0.47964 l 0,-0.0145 0.0145,0 c 0.3125,-0.29737 0.52323,-0.7222 0.52323,-1.17728 l 0,-10.91535 4.53474,11.20603 a 0.58339278,0.58339278 0 0 0 0,0.0145 c 0.17107,0.40632 0.45405,0.74884 0.81392,1.00287 a 0.58339278,0.58339278 0 0 0 0.0145,0.0145 c 0.38337,0.24808 0.84483,0.34882 1.29356,0.34882 0.44872,0 0.88893,-0.10582 1.26449,-0.34882 a 0.58339278,0.58339278 0 0 0 0.0145,-0.0145 c 0.35984,-0.25401 0.64283,-0.59657 0.81392,-1.00287 a 0.58339278,0.58339278 0 0 0 0,-0.0145 l 4.53474,-11.20603 0,10.91535 c -3e-5,0.44608 0.19018,0.87332 0.49417,1.17728 a 0.58339278,0.58339278 0 0 0 0.0145,0.0145 c 0.31936,0.29659 0.74573,0.47964 1.19181,0.47964 0.44606,0 0.87842,-0.18079 1.19182,-0.49417 0.30394,-0.30396 0.49414,-0.73125 0.49417,-1.17728 l 0,-14.62163 c -3e-5,-0.57444 -0.23311,-1.11501 -0.63951,-1.52611 -0.002,-0.002 0.002,-0.0117 0,-0.0145 -0.40626,-0.42262 -0.95318,-0.65403 -1.52611,-0.65405 l -0.81393,0 c -0.44031,2e-5 -0.8694,0.13407 -1.23543,0.39243 a 0.58339278,0.58339278 0 0 0 -0.0145,0.0145 c -0.33405,0.25053 -0.60163,0.57964 -0.77034,0.95926 a 0.58339278,0.58339278 0 0 0 0,0.0145 l -5.01429,12.52871 -5.02891,-12.52867 a 0.58339278,0.58339278 0 0 0 0,-0.0145 c -0.17166,-0.38622 -0.4571,-0.71357 -0.79939,-0.95927 -0.003,-0.002 -0.0103,0.002 -0.0145,0 -0.35015,-0.25878 -0.78531,-0.40695 -1.2209,-0.40697 l -0.81392,0 z m -53.41396,0.029 c -0.72278,0.11337 -1.34264,0.60676 -1.65693,1.32262 l -6.23525,14.7379 a 0.58339278,0.58339278 0 0 0 0,0.0145 c -0.10812,0.25958 -0.17441,0.5447 -0.17441,0.85753 0,0.41407 0.21786,0.74956 0.46509,1.01741 0.33838,0.36658 0.82797,0.5087 1.35171,0.5087 0.63321,0 1.21541,-0.44266 1.46797,-1.03194 a 0.58339278,0.58339278 0 0 0 0,-0.0145 l 1.45344,-3.44465 3.35744,0 0,-3.19756 -2.03481,0 2.03481,-4.88357 0,-5.88643 c -0.009,10e-4 -0.0198,-10e-4 -0.029,0 z m 0.84299,0 0,5.90097 2.02029,4.86903 -2.02029,0 0,3.19756 3.35746,0 1.45344,3.44465 a 0.58339278,0.58339278 0 0 0 0,0.0145 c 0.25666,0.59892 0.83475,1.03194 1.46797,1.03194 0.52373,0 1.01332,-0.14215 1.3517,-0.5087 0.25699,-0.27843 0.45053,-0.63009 0.45056,-1.01741 -1e-5,-0.31279 -0.0663,-0.59797 -0.17441,-0.85754 a 0.58339278,0.58339278 0 0 0 0,-0.0145 l -6.23525,-14.7379 c -0.31782,-0.72388 -0.93547,-1.22128 -1.67147,-1.32263 z m -52.280271,-0.029 c -0.437083,3e-5 -0.871589,0.18827 -1.177287,0.50871 -0.0027,0.002 0.0027,0.0115 0,0.0145 -0.307989,0.31281 -0.494174,0.73536 -0.49417,1.17728 l 0,15.11579 c -4e-6,0.44607 0.190204,0.87333 0.49417,1.17728 0.303958,0.30397 0.731219,0.49418 1.177287,0.49418 0.439131,0 0.864912,-0.17526 1.177288,-0.47964 l 0,-0.0145 0.01451,0 c 0.312493,-0.29737 0.537764,-0.7222 0.537774,-1.17728 l 0,-4.33126 2.151093,-2.18016 5.90097,7.49975 0.01451,0.029 0.01451,-0.0145 c 0.301623,0.40028 0.769627,0.66859 1.264494,0.66859 0.451214,0 0.893064,-0.15183 1.206356,-0.4651 0.296763,-0.29678 0.508682,-0.70429 0.508704,-1.13368 -1.8e-5,-0.39346 -0.152641,-0.79544 -0.406963,-1.11916 l -6.177055,-7.77593 5.30506,-5.26146 c 0.300492,-0.30049 0.436013,-0.73033 0.436033,-1.13368 -2e-5,-0.41929 -0.164121,-0.84389 -0.465102,-1.13368 -0.0077,-0.007 -0.0067,-0.0218 -0.01451,-0.029 l -0.01451,0.0145 c -0.312931,-0.29866 -0.733363,-0.45055 -1.162754,-0.45058 -0.458594,4e-5 -0.890589,0.23387 -1.191821,0.58139 l -0.01451,-0.0145 -0.02907,0.0435 -7.325342,7.44162 0,-6.35154 c -5e-6,-0.44804 -0.21045,-0.87181 -0.523239,-1.17728 -0.0095,-0.0103 -0.0194,-0.0192 -0.02908,-0.029 -0.313729,-0.32006 -0.746719,-0.49414 -1.177287,-0.49417 z m -29.50485,0.029 c -0.720005,0.11337 -1.328111,0.60676 -1.642389,1.32262 l -6.249797,14.7379 a 0.58339278,0.58339278 0 0 0 0,0.0145 c -0.10816,0.25958 -0.174413,0.5447 -0.174413,0.85753 -1e-6,0.41408 0.232396,0.74956 0.479636,1.01741 0.328597,0.35598 0.813432,0.5087 1.337165,0.5087 0.63321,0 1.211294,-0.43303 1.467976,-1.03194 a 0.58339278,0.58339278 0 0 0 0,-0.0145 l 1.453441,-3.44465 3.357449,0 0,-3.19756 -2.020283,0 2.020283,-4.86903 0,-5.90097 c -0.0093,10e-4 -0.01982,-10e-4 -0.02907,0 z m 0.842995,0 0,5.90097 2.020284,4.86903 -2.020284,0 0,3.19756 3.371983,0 1.438907,3.44465 a 0.58339278,0.58339278 0 0 0 0,0.0145 c 0.256661,0.59892 0.834755,1.03194 1.467975,1.03194 0.523724,0 1.013312,-0.14215 1.351703,-0.5087 0.256987,-0.27843 0.465069,-0.63009 0.465102,-1.01741 -2.4e-5,-0.31279 -0.08082,-0.59797 -0.188948,-0.85754 a 0.58339278,0.58339278 0 0 0 0,-0.0145 l -6.235265,-14.7379 c -0.317817,-0.72388 -0.935462,-1.22128 -1.671457,-1.32263 z m -23.981777,-0.029 c -0.437082,3e-5 -0.886122,0.18827 -1.191822,0.50871 -0.003,0.002 0.0029,0.0115 0,0.0145 -0.307988,0.31281 -0.494173,0.73536 -0.49417,1.17728 l 0,15.11579 c -3e-6,0.44607 0.190202,0.87333 0.49417,1.17728 0.303958,0.30397 0.745752,0.49418 1.191822,0.49418 0.43913,0 0.864912,-0.17527 1.177287,-0.47964 l 0,-0.0145 0.01454,0 c 0.312496,-0.29737 0.523232,-0.7222 0.523239,-1.17728 l 0,-5.93005 8.095666,0 0,5.93005 c -2e-5,0.44608 0.204719,0.87332 0.508705,1.17728 0.313395,0.31341 0.745745,0.49417 1.191822,0.49417 0.439123,0 0.864907,-0.17528 1.177286,-0.47964 l 0,-0.0145 0.01454,0 c 0.320435,-0.30569 0.508682,-0.74019 0.508704,-1.17728 l 0,-15.11579 c -2.2e-5,-0.43056 -0.174117,-0.86356 -0.49417,-1.17728 -0.0094,-0.0103 -0.01939,-0.0192 -0.02906,-0.029 -0.313732,-0.32006 -0.746723,-0.49414 -1.177286,-0.49417 -0.43722,3e-5 -0.877298,0.17904 -1.191822,0.5087 -0.003,0.002 0.0029,0.0116 0,0.0145 -0.308007,0.31281 -0.508725,0.73535 -0.508705,1.17728 l 0,5.93004 -8.095666,0 0,-5.93004 c -7e-6,-0.44804 -0.195916,-0.87181 -0.508705,-1.17728 -0.0047,-0.005 -0.0097,-0.009 -0.01454,-0.0145 -0.005,-0.005 -0.0095,-0.0103 -0.01454,-0.0145 -0.313727,-0.32006 -0.746716,-0.49414 -1.177286,-0.49417 z m 274.584083,-0.13081 c -2.5763,2e-5 -4.76461,0.86652 -6.45327,2.57259 a 0.58339278,0.58339278 0 0 0 -0.0145,0 c -1.75309,1.78782 -2.63073,4.11163 -2.63073,6.83118 0,2.68291 0.84046,4.97128 2.52898,6.72943 1.69316,1.74554 3.95569,2.61619 6.64223,2.61619 1.99816,0 3.97448,-0.47789 5.87191,-1.42437 0.007,-0.003 0.008,-0.0114 0.0145,-0.0145 0.37025,-0.17919 0.66394,-0.45816 0.87207,-0.78486 l 0.0145,0 c 0.002,-0.002 -0.002,-0.0118 0,-0.0145 0.23816,-0.3737 0.3488,-0.80349 0.34883,-1.23543 l 0,-5.55214 c -3e-5,-0.45348 -0.17853,-0.90521 -0.50871,-1.23543 -0.32144,-0.32141 -0.77911,-0.53776 -1.24996,-0.53777 l -4.81089,0 c -0.43185,10e-6 -0.84617,0.20667 -1.13368,0.49417 -0.28752,0.28751 -0.46511,0.69317 -0.46511,1.10461 0,0.41146 0.16734,0.82141 0.46511,1.11915 0.29774,0.29778 0.72223,0.46512 1.13368,0.4651 l 3.44465,0 0,3.4592 c -1.15362,0.57049 -2.36293,0.8866 -3.69173,0.8866 -1.93648,0 -3.38251,-0.57636 -4.4766,-1.7296 -1.07158,-1.13109 -1.61332,-2.53838 -1.61332,-4.34579 0,-1.97338 0.57928,-3.42866 1.71506,-4.5202 1.09675,-1.03745 2.4836,-1.55517 4.25858,-1.55518 1.5063,10e-6 2.98199,0.42232 4.49113,1.29357 a 0.58339278,0.58339278 0 0 0 0.029,0.0145 c 0.25268,0.12638 0.56304,0.18897 0.8866,0.18895 0.4035,2e-5 0.81762,-0.18241 1.09008,-0.47964 a 0.58339278,0.58339278 0 0 0 0.0145,-0.0145 c 0.27432,-0.32422 0.40694,-0.74943 0.40696,-1.19182 -3e-5,-0.52064 -0.3251,-1.01779 -0.77032,-1.27903 l 0.0145,-0.0145 c -0.0123,-0.008 -0.0313,-0.007 -0.0435,-0.0145 -0.79818,-0.5049 -1.69816,-0.93069 -2.67433,-1.27903 -0.005,-10e-4 -0.0103,10e-4 -0.0145,0 -1.02594,-0.36935 -2.25914,-0.55229 -3.69175,-0.5523 z m -151.57937,0 c -2.61682,2e-5 -4.82107,0.86038 -6.51141,2.52899 l -0.0145,0 c -1.74395,1.71365 -2.63075,4.05349 -2.63075,6.86024 0,2.80677 0.88804,5.11882 2.63073,6.83118 l 0.0145,0 c 0.82382,0.82153 1.78171,1.45562 2.89235,1.88947 a 0.58339278,0.58339278 0 0 0 0.0145,0 c 1.10943,0.41604 2.3013,0.63951 3.57546,0.63951 1.27439,0 2.38823,-0.16034 3.32838,-0.47963 0.90134,-0.30045 1.74274,-0.64871 2.54353,-1.09008 0.006,-0.003 0.009,-0.0114 0.0145,-0.0145 0.52044,-0.27004 0.84298,-0.84633 0.84299,-1.4389 -1e-5,-0.36106 -0.16095,-0.72353 -0.4215,-1.00288 l 0.029,-0.0145 c -0.0114,-0.0134 -0.0319,-0.0161 -0.0435,-0.029 -0.25758,-0.28475 -0.63801,-0.46509 -1.01742,-0.4651 -0.291,0 -0.55515,0.0377 -0.79938,0.15987 a 0.58339278,0.58339278 0 0 0 -0.0145,0.0145 c -0.62093,0.32599 -1.26637,0.58299 -1.91855,0.78485 -0.61233,0.18954 -1.37716,0.29069 -2.29644,0.29069 -1.96864,0 -3.41333,-0.59227 -4.49113,-1.75866 -0.98716,-1.07556 -1.48251,-2.46775 -1.48251,-4.31672 0,-1.84895 0.49695,-3.27196 1.48251,-4.34579 0.49212,-0.53553 1.117,-0.95049 1.8604,-1.2645 0.005,-0.002 0.0103,0.002 0.0145,0 0.7505,-0.30689 1.58649,-0.46508 2.52899,-0.4651 0.99286,2e-5 1.78189,0.0899 2.38363,0.27615 0.64499,0.19966 1.29159,0.47027 1.91855,0.7994 a 0.58339278,0.58339278 0 0 0 0.0145,0.0145 c 0.2753,0.1377 0.53314,0.14536 0.79938,0.14535 0.37631,2e-5 0.78055,-0.15805 1.04648,-0.45057 0.26409,-0.2881 0.40694,-0.66261 0.40696,-1.03194 -1e-5,-0.31591 -0.0743,-0.63538 -0.24707,-0.90114 -0.002,-0.003 0.002,-0.0114 0,-0.0145 -0.24109,-0.38926 -0.56776,-0.55242 -1.04648,-0.79939 -0.007,-0.005 -0.0216,-0.0103 -0.029,-0.0145 -0.51525,-0.29113 -1.1904,-0.56151 -2.07843,-0.85753 -0.93846,-0.31871 -2.04057,-0.47962 -3.2993,-0.47963 z m -49.66408,0 c -2.07459,2e-5 -3.80493,0.52932 -5.101577,1.62786 -1.192181,1.01155 -1.816803,2.39974 -1.816803,3.98242 0,1.49548 0.645831,2.79718 1.845871,3.70628 0.538657,0.39502 1.138669,0.7148 1.802269,0.95926 0.64896,0.23298 1.31212,0.44165 1.96214,0.62499 0.65698,0.18067 1.2983,0.34549 1.91855,0.50871 a 0.58339278,0.58339278 0 0 0 0.0145,0 c 0.60063,0.13861 1.11425,0.31244 1.55518,0.49417 0.004,10e-4 0.0107,-0.001 0.0145,0 0.48611,0.21219 0.83797,0.44788 1.03194,0.66858 0.19591,0.2229 0.26161,0.41408 0.26162,0.66858 -1e-5,0.79068 -0.24917,1.25731 -0.81393,1.62785 -0.56476,0.37055 -1.52775,0.61045 -2.89235,0.61045 -1.02128,0 -1.92154,-0.10937 -2.65979,-0.30522 -0.77321,-0.20513 -1.312817,-0.36717 -1.627858,-0.49417 -0.01097,-0.006 -0.01814,-0.009 -0.02907,-0.0145 -0.385987,-0.17969 -0.743962,-0.27615 -1.090081,-0.27615 -0.381825,10e-6 -0.780914,0.18926 -1.046478,0.49417 -0.0047,0.005 -0.01017,0.009 -0.01451,0.0145 -0.26275,0.29353 -0.406963,0.67599 -0.406963,1.07555 0,0.36148 0.1278,0.70988 0.319756,0.97381 a 0.58339278,0.58339278 0 0 0 0.01451,0.0145 c 0.184859,0.22595 0.402079,0.42459 0.683117,0.55231 a 0.58339278,0.58339278 0 0 0 0.01451,0.0145 c 1.885526,0.81536 3.913357,1.22089 6.060847,1.22089 1.98744,0 3.66295,-0.47741 4.9417,-1.46798 1.24397,-0.97354 1.904,-2.33515 1.90401,-3.89522 -1e-5,-1.61208 -0.62815,-2.95144 -1.84587,-3.83709 -0.53454,-0.39198 -1.13405,-0.71475 -1.80227,-0.94473 -0.004,-10e-4 -0.0102,10e-4 -0.0145,0 -0.63844,-0.23459 -1.29628,-0.44397 -1.96215,-0.61045 -0.65443,-0.1636 -1.29504,-0.31741 -1.91854,-0.46509 -0.59269,-0.14038 -1.09762,-0.30196 -1.54065,-0.50871 a 0.58339278,0.58339278 0 0 0 -0.0145,-0.0145 c -0.94661,-0.41592 -1.27904,-0.86509 -1.27903,-1.56971 -1e-5,-0.72179 0.26364,-1.16051 0.95927,-1.56971 0.69885,-0.40533 1.63275,-0.62498 2.81968,-0.62499 1.31489,10e-6 2.46332,0.178 3.44465,0.52325 0.004,0.001 0.0103,-10e-4 0.0145,0 0.37602,0.13643 0.68027,0.23257 1.0174,0.23255 0.40384,2e-5 0.77674,-0.23359 1.01741,-0.53777 0.004,-0.006 0.0105,-0.009 0.0145,-0.0145 0.2411,-0.31343 0.37787,-0.7054 0.37789,-1.07555 -2e-5,-0.66361 -0.44242,-1.28087 -1.06101,-1.51158 -0.003,-9.3e-4 0.003,-0.0135 0,-0.0145 -0.004,-10e-4 -0.0102,10e-4 -0.0145,0 -1.53488,-0.56091 -3.22334,-0.84299 -5.05798,-0.84301 z m -31.307116,0 c -2.616831,2e-5 -4.821075,0.86038 -6.511416,2.52899 l -0.01451,0 c -1.743929,1.71365 -2.616194,4.05349 -2.616194,6.86024 0,2.80677 0.873511,5.11882 2.616194,6.83118 l 0.01451,0 c 0.823815,0.82153 1.796245,1.45562 2.906883,1.88947 a 0.58339278,0.58339278 0 0 0 0.01451,0 c 1.111104,0.41666 2.301312,0.63951 3.575465,0.63951 1.274392,0 2.388234,-0.16034 3.32838,-0.47963 0.901329,-0.30045 1.742739,-0.64871 2.543523,-1.09008 0.0055,-0.003 0.009,-0.0114 0.01451,-0.0145 0.525425,-0.273 0.842977,-0.85904 0.842995,-1.4389 -1.8e-5,-0.36106 -0.175482,-0.72353 -0.436032,-1.00288 l 0.02908,-0.0145 c -0.0112,-0.0134 -0.03191,-0.0161 -0.04358,-0.029 -0.257573,-0.28475 -0.638006,-0.46509 -1.017409,-0.4651 -0.291009,0 -0.555163,0.0377 -0.799392,0.15987 a 0.58339278,0.58339278 0 0 0 -0.01451,0.0145 c -0.620928,0.32599 -1.251824,0.58299 -1.904008,0.78485 -0.614561,0.19022 -1.377159,0.29069 -2.296432,0.29069 -1.968633,0 -3.414949,-0.59402 -4.491132,-1.75866 -0.987164,-1.07556 -1.497054,-2.46775 -1.497045,-4.31672 -9e-6,-1.84895 0.511472,-3.27196 1.497045,-4.34579 0.492114,-0.53553 1.102457,-0.95049 1.845869,-1.2645 0.0042,-0.002 0.01029,0.002 0.01452,0 0.750497,-0.30689 1.586488,-0.46508 2.528988,-0.4651 0.992865,2e-5 1.796425,0.0899 2.398177,0.27615 0.64498,0.19966 1.277047,0.47027 1.904008,0.7994 a 0.58339278,0.58339278 0 0 0 0.01451,0.0145 c 0.275308,0.1377 0.533151,0.14536 0.799394,0.14535 0.376299,2e-5 0.780541,-0.15805 1.046477,-0.45057 0.264089,-0.2881 0.421475,-0.66261 0.421497,-1.03194 -1.8e-5,-0.31591 -0.0888,-0.63538 -0.261619,-0.90114 -0.0018,-0.003 0.0018,-0.0114 0,-0.0145 -0.228704,-0.36913 -0.549526,-0.54959 -1.031943,-0.79939 -0.0073,-0.005 -0.02162,-0.0103 -0.02907,-0.0145 -0.515248,-0.29113 -1.190408,-0.56151 -2.078421,-0.85753 -0.940364,-0.31935 -2.055105,-0.47962 -3.313845,-0.47963 z"
       inkscape:connector-curvature="0" />
  </g>
</svg>
